<svg width="60" height="53" viewBox="0 0 60 53" fill="none" xmlns="http://www.w3.org/2000/svg">
<path d="M9.33384 0.309994C9.12061 0.469913 8.96069 1.74929 8.96069 3.13528C8.96069 6.06718 11.0397 10.5983 13.1187 12.2508C14.1848 13.0504 14.398 13.5302 13.9716 14.1699C13.5451 14.8629 12.5323 14.9695 8.58754 14.9162C5.28249 14.8096 3.1502 15.0761 1.81752 15.6092C-0.421387 16.5154 -0.474694 16.7819 1.01791 18.3811C1.60429 19.0208 2.51051 20.3535 2.99028 21.313C4.48288 24.2449 6.40194 25.2578 10.4533 25.3111L14.0249 25.3644L14.2914 27.9765C14.7179 31.8146 16.1039 33.9469 18.8225 35.1729C22.0743 36.6122 22.714 39.171 20.6883 43.0624C20.0486 44.1819 19.4089 45.9943 19.249 47.0071C18.9825 48.6597 19.1957 49.1927 20.5284 50.5254C22.4474 52.3912 25.9657 52.9776 32.8423 52.5511C38.6528 52.2313 40.0921 51.2717 40.3054 47.7534C40.412 46.1009 40.1454 44.6616 39.3991 43.169C37.6933 39.9173 38.1198 35.6527 40.1454 35.6527C41.3182 35.6527 44.2501 32.934 44.9964 31.015C45.4228 30.0554 45.7427 28.3496 45.7427 27.1768V25.0446L48.568 25.3644C52.0863 25.7376 55.1248 24.4582 56.3508 22.166C56.8306 21.2597 57.8967 19.7138 58.803 18.701C60.2956 16.9419 60.2956 16.8352 59.336 16.1422C57.8967 15.0761 55.3913 14.7029 50.5403 14.9695C45.4228 15.1827 44.7299 14.4364 47.3419 11.6644C49.7407 9.10569 50.5937 7.13332 50.9135 3.66835C51.2866 -0.00984955 50.5403 -0.756153 48.5147 1.16291C45.4228 4.0415 42.7042 4.94772 36.6805 5.10765C33.5886 5.16095 30.3902 5.21426 29.484 5.16095C26.9785 5.10765 21.0614 5.16095 20.1552 5.26757C18.6093 5.42749 13.3852 3.08197 11.8393 1.53606C10.1868 -0.116467 9.86691 -0.276386 9.33384 0.309994ZM19.8354 7.08001C21.0614 7.02671 22.6607 6.81348 23.4603 6.60025C24.4198 6.33371 25.9124 6.54694 27.5116 7.02671C29.8038 7.82632 30.2836 7.82632 32.4159 7.08001C34.4416 6.38702 35.2412 6.33371 37.5867 6.92009C39.9855 7.45316 40.6785 7.45316 42.9174 6.60025C44.3034 6.12048 46.2758 5.21426 47.2353 4.68119C48.7279 3.82827 48.9411 3.82827 48.9411 4.52127C48.9411 6.2271 47.1287 9.10569 44.7832 11.1314L42.3843 13.2637L43.4505 14.4897C44.0369 15.1294 44.6765 16.0889 44.8365 16.622C45.103 17.3683 45.5295 17.4749 46.6489 17.1551C48.5147 16.7286 56.1909 16.622 56.6174 17.0485C57.1504 17.5282 54.5917 21.7395 53.259 22.699C52.3528 23.2854 51.0201 23.4453 47.9816 23.3387C43.8769 23.1255 43.8769 23.1255 43.9836 24.4582C44.1968 27.55 43.024 31.3348 41.4248 32.7208C40.5186 33.4671 39.4524 34.0535 39.026 34.0535C37.9065 34.0535 36.1474 37.2519 36.1474 39.2243C36.1474 40.1305 36.7338 42.1562 37.4801 43.7554C40.1987 49.6192 39.1326 50.5787 30.0171 50.5787C20.8482 50.5787 19.6221 49.406 22.6073 43.5422C23.7801 41.3033 23.94 40.2904 23.7268 38.2114C23.5669 36.8255 23.6202 35.6527 23.8867 35.6527C25.0062 35.6527 28.2046 31.6013 29.2174 28.8827C30.6567 25.0446 30.6567 22.859 29.2174 22.859C28.0447 22.859 27.3517 21.5796 26.8186 18.5411C26.6587 17.4216 26.0723 15.9823 25.4859 15.2893C24.4198 13.9033 21.328 12.7306 18.7692 12.7306C16.5303 12.7306 13.4918 10.4384 12.2124 7.77301C10.3467 3.93489 10.6132 3.61504 14.398 5.4808C16.5303 6.54694 18.3961 7.08001 19.8354 7.08001ZM22.8206 15.6625C24.3132 16.4621 25.4859 18.9142 25.4859 21.4197C25.4859 21.9527 26.0723 22.9656 26.8186 23.7119C27.5649 24.4582 28.1513 25.471 28.1513 25.9508C28.098 27.4434 26.2855 31.015 24.6863 32.5609C20.8482 36.399 15.8906 32.241 15.8906 25.1512V22.9656L11.8926 23.2321C8.80077 23.4986 7.68131 23.3387 6.66848 22.699C5.3891 21.8461 2.88366 17.5815 3.41673 17.0485C3.78989 16.622 10.6132 16.7286 12.8521 17.1551C14.5046 17.5282 14.8778 17.4216 15.1976 16.622C15.8906 14.5963 16.5836 14.2232 18.9291 14.543C20.2085 14.7029 21.9677 15.1827 22.8206 15.6625Z" fill="white"/>
<path d="M36.254 24.4049C35.1879 25.0446 35.7209 26.857 37.0003 27.0169C38.333 27.2302 39.1326 25.7376 38.2264 24.6714C37.5334 23.8185 37.2135 23.7652 36.254 24.4049Z" fill="white"/>
<path d="M26.3389 43.7021C25.2194 44.555 24.9529 45.1947 25.0595 46.5274L25.2194 48.1799L28.9509 48.3398C33.9618 48.5531 35.0813 48.2332 35.0813 46.5274C35.0813 45.7811 34.4949 44.6083 33.7486 43.9153C32.0428 42.1562 28.4179 42.0496 26.3389 43.7021Z" fill="white"/>
<path d="M21.7544 24.7247C20.7948 25.8441 21.4878 27.2301 22.9271 27.0169C24.3131 26.857 24.8995 25.0978 23.78 24.4049C22.8205 23.7652 22.5007 23.8185 21.7544 24.7247Z" fill="white"/>
<path fill-rule="evenodd" clip-rule="evenodd" d="M54 37H50V43H44V47H50V53H54V47H60V43H54V37Z" fill="white"/>
</svg>
