<svg width="69" height="62" viewBox="0 0 69 62" fill="none" xmlns="http://www.w3.org/2000/svg">
<path d="M19.6455 4.50584C12.6669 7.22657 6.75711 9.63093 6.44276 9.88403C5.49971 10.8964 -0.472951 32.7888 0.03001 33.3582C1.0988 34.4972 1.85324 32.7888 4.74527 22.6651C6.37989 17.0971 7.88877 12.2251 8.20312 11.8455C8.51747 11.4658 14.1758 9.12475 20.84 6.59384L32.9739 2.03819L45.2336 6.72038L57.4933 11.4026L59.1279 17.0339C60.0709 20.1342 61.5798 25.1328 62.46 28.1699C63.5917 31.903 64.4718 33.7379 65.0377 33.7379C65.5406 33.7379 65.9807 33.4215 65.9807 33.1052C65.9807 32.7255 64.5347 27.3473 62.7743 21.0833L59.5051 9.75748L47.1826 5.07529C40.3926 2.4811 34.2942 0.203283 33.6026 0.0134641C32.8482 -0.176354 27.127 1.65856 19.6455 4.50584Z" fill="white"/>
<path d="M20.7143 8.93494L9.712 13.1742L7.07146 22.3488C5.56257 27.4106 4.36804 32.0295 4.36804 32.599C4.36804 33.4848 4.871 33.7379 6.56849 33.7379H8.76895V46.3925V59.047H32.2824C53.1552 59.047 55.8586 58.9205 56.173 58.0347C56.3616 57.4652 56.5502 51.7707 56.5502 45.3801V33.7379H58.6878C59.8823 33.7379 61.014 33.4848 61.2026 33.1684C61.3912 32.9153 60.2595 28.2332 58.6878 22.9182L55.8586 13.1742L44.7306 8.87166C38.6322 6.53057 33.1625 4.63238 32.6596 4.63238C32.1566 4.69566 26.7498 6.59384 20.7143 8.93494ZM43.6618 10.9597C49.1315 13.0477 53.6582 14.8193 53.7839 14.8826C54.0983 15.1989 58.4363 30.3212 58.4363 31.0804C58.4363 31.5233 57.4933 31.8397 56.2359 31.8397H54.0354L53.9097 44.3045L53.721 56.8325H48.6914H43.6618L43.4732 47.7845L43.2846 38.7997H32.3452H21.4058L21.2172 47.7845L21.0286 56.8325L16.1876 57.0223L11.2837 57.2121L11.158 44.6841L10.9694 32.1561L9.0833 31.8397C7.95164 31.5866 7.1972 31.0804 7.26007 30.5742C7.38581 28.8659 11.4095 15.7051 11.9753 15.0724C12.6669 14.3764 31.3393 7.22657 32.7224 7.22657C33.2883 7.1633 38.1921 8.87166 43.6618 10.9597ZM38.3179 41.1408C38.3179 41.8368 33.0997 47.0252 32.4081 47.0252C31.6537 47.0252 26.3726 41.9001 26.3726 41.2041C26.3726 40.951 29.076 40.6979 32.3452 40.6979C35.6145 40.6979 38.3179 40.8877 38.3179 41.1408ZM28.1958 46.6456L30.3963 48.9234L28.8245 50.5685C28.0072 51.4543 26.5612 52.783 25.6181 53.479L23.8578 54.6812V48.9234C23.8578 42.4063 24.0464 42.2797 28.1958 46.6456ZM41.3985 48.9234C41.3985 52.0237 41.147 54.6179 40.8956 54.6179C40.5812 54.6179 38.9466 53.3525 37.2491 51.7707L34.2313 48.9234L37.1862 46.0761C38.8208 44.4943 40.3926 43.2288 40.7698 43.2288C41.147 43.2288 41.3985 45.5699 41.3985 48.9234ZM35.6773 53.5423C37.1233 54.9976 38.3179 56.4528 38.3179 56.7059C38.3179 56.959 35.6145 57.1488 32.3452 57.1488C29.076 57.1488 26.3726 56.959 26.3726 56.7059C26.3726 55.9467 31.5908 50.8216 32.3452 50.8216C32.7224 50.8216 34.2313 52.0237 35.6773 53.5423Z" fill="white"/>
<path d="M29.5161 12.7313C27.3157 13.8069 27.3157 13.8702 27.3157 17.9197V22.0324H32.6596H38.0036L38.1922 17.9197L38.3808 13.7437L36.1175 12.668C33.3512 11.3393 32.3453 11.3393 29.5161 12.7313ZM35.2373 14.756C36.0546 15.2622 36.4318 16.0848 36.4318 17.6033V19.8179H32.974H29.5161V17.3502C29.5161 15.5153 29.8305 14.756 30.6478 14.5662C32.5968 14.06 33.9799 14.1233 35.2373 14.756Z" fill="white"/>
<mask id="path-4-outside-1_66_167" maskUnits="userSpaceOnUse" x="48" y="41" width="21" height="21" fill="black">
<rect fill="white" x="48" y="41" width="21" height="21"/>
<path fill-rule="evenodd" clip-rule="evenodd" d="M60.3153 44H56.5892V49.625H51V53.375H56.5892V59H60.3153V53.375H65.9045V49.625H60.3153V44Z"/>
</mask>
<path fill-rule="evenodd" clip-rule="evenodd" d="M60.3153 44H56.5892V49.625H51V53.375H56.5892V59H60.3153V53.375H65.9045V49.625H60.3153V44Z" fill="white"/>
<path d="M56.5892 44V41H53.5892V44H56.5892ZM60.3153 44H63.3153V41H60.3153V44ZM56.5892 49.625V52.625H59.5892V49.625H56.5892ZM51 49.625V46.625H48V49.625H51ZM51 53.375H48V56.375H51V53.375ZM56.5892 53.375H59.5892V50.375H56.5892V53.375ZM56.5892 59H53.5892V62H56.5892V59ZM60.3153 59V62H63.3153V59H60.3153ZM60.3153 53.375V50.375H57.3153V53.375H60.3153ZM65.9045 53.375V56.375H68.9045V53.375H65.9045ZM65.9045 49.625H68.9045V46.625H65.9045V49.625ZM60.3153 49.625H57.3153V52.625H60.3153V49.625ZM56.5892 47H60.3153V41H56.5892V47ZM59.5892 49.625V44H53.5892V49.625H59.5892ZM51 52.625H56.5892V46.625H51V52.625ZM54 53.375V49.625H48V53.375H54ZM56.5892 50.375H51V56.375H56.5892V50.375ZM59.5892 59V53.375H53.5892V59H59.5892ZM60.3153 56H56.5892V62H60.3153V56ZM57.3153 53.375V59H63.3153V53.375H57.3153ZM65.9045 50.375H60.3153V56.375H65.9045V50.375ZM62.9045 49.625V53.375H68.9045V49.625H62.9045ZM60.3153 52.625H65.9045V46.625H60.3153V52.625ZM57.3153 44V49.625H63.3153V44H57.3153Z" fill="#56A763" mask="url(#path-4-outside-1_66_167)"/>
</svg>
