<svg width="68" height="60" viewBox="0 0 68 60" fill="none" xmlns="http://www.w3.org/2000/svg">
<path d="M20.0904 4.57857C12.9538 7.34321 6.91015 9.78638 6.58868 10.0436C5.62427 11.0723 -0.483662 33.318 0.0306897 33.8966C1.12369 35.0539 1.89522 33.318 4.85274 23.031C6.52439 17.3731 8.06744 12.4224 8.38891 12.0367C8.71038 11.6509 14.4968 9.27203 21.312 6.70027L33.7208 2.0711L46.2581 6.82886L58.7954 11.5866L60.4671 17.3088C61.4315 20.4592 62.9745 25.5384 63.8747 28.6245C65.032 32.4179 65.9321 34.2824 66.5107 34.2824C67.0251 34.2824 67.4751 33.9609 67.4751 33.6395C67.4751 33.2537 65.9964 27.7887 64.1961 21.4236L60.8528 9.91497L48.2512 5.15721C41.3075 2.52116 35.0709 0.206573 34.3637 0.0136909C33.5922 -0.179192 27.7414 1.68533 20.0904 4.57857Z" fill="white"/>
<path d="M21.1834 9.07913L9.93198 13.3868L7.23163 22.7095C5.68857 27.853 4.46699 32.5465 4.46699 33.1251C4.46699 34.0252 4.98134 34.2824 6.71728 34.2824H8.96757V47.1412V60H33.0135C54.3591 60 57.1238 59.8714 57.4453 58.9713C57.6381 58.3926 57.831 52.6062 57.831 46.1125V34.2824H60.017C61.2386 34.2824 62.3959 34.0252 62.5888 33.7037C62.7817 33.4466 61.6244 28.6888 60.017 23.2881L57.1238 13.3868L45.7438 9.01484C39.5072 6.63596 33.9137 4.70714 33.3993 4.70714C32.8849 4.77143 27.3557 6.70025 21.1834 9.07913ZM44.6508 11.1365C50.2443 13.2582 54.8735 15.0585 55.0021 15.1228C55.3236 15.4442 59.7598 30.8105 59.7598 31.582C59.7598 32.0321 58.7954 32.3536 57.5096 32.3536H55.2593L55.1307 45.0195L54.9378 57.7497H49.7943H44.6508L44.4579 48.5557L44.265 39.4259H33.0778H21.8907L21.6978 48.5557L21.5049 57.7497L16.5543 57.9426L11.5393 58.1355L11.4107 45.4053L11.2179 32.675L9.28904 32.3536C8.13175 32.0964 7.36022 31.582 7.42451 31.0677C7.5531 29.3318 11.6679 15.9586 12.2466 15.3157C12.9538 14.6084 32.0491 7.34319 33.4636 7.34319C34.0422 7.2789 39.0572 9.01484 44.6508 11.1365ZM39.1858 41.8048C39.1858 42.512 33.8494 47.7841 33.1421 47.7841C32.3706 47.7841 26.9699 42.5763 26.9699 41.8691C26.9699 41.6119 29.7345 41.3547 33.0778 41.3547C36.4211 41.3547 39.1858 41.5476 39.1858 41.8048ZM28.8344 47.3984L31.0847 49.713L29.4774 51.3846C28.6415 52.2847 27.1628 53.6349 26.1984 54.3421L24.3981 55.5637V49.713C24.3981 43.0907 24.591 42.9621 28.8344 47.3984ZM42.3362 49.713C42.3362 52.8634 42.079 55.4994 41.8218 55.4994C41.5003 55.4994 39.8287 54.2135 38.0928 52.6062L35.0066 49.713L38.0285 46.8197C39.7001 45.2124 41.3075 43.9265 41.6932 43.9265C42.079 43.9265 42.3362 46.3054 42.3362 49.713ZM36.4854 54.4064C37.9642 55.8852 39.1858 57.3639 39.1858 57.6211C39.1858 57.8783 36.4211 58.0712 33.0778 58.0712C29.7345 58.0712 26.9699 57.8783 26.9699 57.6211C26.9699 56.8496 32.3063 51.6418 33.0778 51.6418C33.4636 51.6418 35.0066 52.8634 36.4854 54.4064Z" fill="white"/>
<path d="M30.1846 12.9368C27.9343 14.0298 27.9343 14.0941 27.9343 18.2089V22.388H33.3993H38.8643L39.0572 18.2089L39.25 13.9655L36.9355 12.8725C34.1065 11.5223 33.0778 11.5223 30.1846 12.9368ZM36.0353 14.9942C36.8712 15.5085 37.2569 16.3444 37.2569 17.8874V20.1377H33.7208H30.1846V17.6302C30.1846 15.7657 30.506 14.9942 31.3419 14.8013C33.335 14.287 34.7495 14.3512 36.0353 14.9942Z" fill="white"/>
</svg>
